<?xml version="1.0" encoding="UTF-8" standalone="no"?>
<!-- Generator: Adobe Illustrator 19.0.0, SVG Export Plug-In . SVG Version: 6.00 Build 0)  -->

<svg
   xmlns:dc="http://purl.org/dc/elements/1.1/"
   xmlns:cc="http://creativecommons.org/ns#"
   xmlns:rdf="http://www.w3.org/1999/02/22-rdf-syntax-ns#"
   xmlns:svg="http://www.w3.org/2000/svg"
   xmlns="http://www.w3.org/2000/svg"
   xmlns:sodipodi="http://sodipodi.sourceforge.net/DTD/sodipodi-0.dtd"
   xmlns:inkscape="http://www.inkscape.org/namespaces/inkscape"
   version="1.1"
   id="Layer_1"
   x="0px"
   y="0px"
   viewBox="0 0 520.00001 160"
   xml:space="preserve"
   sodipodi:docname="logo-yucatan.svg"
   width="520"
   height="160"
   inkscape:version="0.92.4 (5da689c313, 2019-01-14)"><metadata
   id="metadata72"><rdf:RDF><cc:Work
       rdf:about=""><dc:format>image/svg+xml</dc:format><dc:type
         rdf:resource="http://purl.org/dc/dcmitype/StillImage" /><dc:title></dc:title></cc:Work></rdf:RDF></metadata><defs
   id="defs70" /><sodipodi:namedview
   pagecolor="#ffffff"
   bordercolor="#666666"
   borderopacity="1"
   objecttolerance="10"
   gridtolerance="10"
   guidetolerance="10"
   inkscape:pageopacity="0"
   inkscape:pageshadow="2"
   inkscape:window-width="1920"
   inkscape:window-height="986"
   id="namedview68"
   showgrid="false"
   inkscape:zoom="0.99746739"
   inkscape:cx="69.175194"
   inkscape:cy="81.349998"
   inkscape:window-x="-11"
   inkscape:window-y="-11"
   inkscape:window-maximized="1"
   inkscape:current-layer="Layer_1" />
<style
   type="text/css"
   id="style2">
	.st0{fill:#77BC1F;}
	.st1{fill:#FFCE00;}
	.st2{fill:#DF8797;}
	.st3{fill:#00A8E1;}
	.st4{fill:#0075C9;}
	.st5{fill:#904799;}
	.st6{fill:#FF8300;}
	.st7{fill:#007565;}
	.st8{fill:#00A887;}
	.st9{fill:#022169;}
	.st10{fill:#005CB9;}
	.st11{fill:#752F8A;}
	.st12{fill:#B6008D;}
	.st13{fill:#FF5959;}
</style>



<g
   id="g3840"
   transform="matrix(0.99980396,0,0,0.99808061,4.000196,1.5009569)"><g
     transform="translate(0,-2.6999969)"
     id="XMLID_258_">
	<path
   style="fill:#77bc1f"
   inkscape:connector-curvature="0"
   d="m 1.5,51.5 h 10.4 c 1.1,0 2.1,-0.1 3.1,-0.3 0.6,-0.1 1.1,-0.6 1.2,-1.1 4,-18.6 20.5,-32.6 40.3,-32.6 h 2.1 C 59,15.3 59.2,13 59.2,10.6 V 3.2 H 56.4 C 28.3,3.2 5,24.3 1.5,51.5 Z"
   class="st0"
   id="XMLID_138_" />
	<path
   style="fill:#ffce00"
   inkscape:connector-curvature="0"
   d="M 47.8,144.3 C 29.2,140.3 15.2,123.8 15.2,104 v -2.1 C 13,101.5 10.7,101.3 8.3,101.3 H 1 v 2.8 c 0,28.2 21,51.4 48.2,55 v -10.4 c 0,-1.1 -0.1,-2.1 -0.3,-3.1 0,-0.7 -0.5,-1.2 -1.1,-1.3 z"
   class="st1"
   id="XMLID_137_" />
	<path
   style="fill:#df8797"
   inkscape:connector-curvature="0"
   d="m 143.3,111.5 c -0.6,0.1 -1.1,0.6 -1.2,1.1 -4,18.6 -20.5,32.6 -40.3,32.6 h -2.1 c -0.4,2.2 -0.6,4.5 -0.6,6.9 0,0 0,0 0,0 v 7.4 h 2.8 c 28.2,0 51.4,-21 55,-48.2 h -10.4 c -1.2,0 -2.2,0 -3.2,0.2 z"
   class="st2"
   id="XMLID_136_" />
	<path
   style="fill:#00a8e1"
   inkscape:connector-curvature="0"
   d="m 109,3.7 v 10.4 c 0,1.1 0.1,2.1 0.3,3.1 0.1,0.6 0.6,1.1 1.1,1.2 18.6,4 32.6,20.5 32.6,40.3 v 2.1 c 2.2,0.4 4.5,0.6 6.9,0.6 h 7.4 V 58.6 C 157.2,30.5 136.2,7.3 109,3.7 Z"
   class="st3"
   id="XMLID_135_" />
	<polygon
   style="fill:#0075c9"
   points="59.2,152.1 59.2,159.5 "
   class="st4"
   id="XMLID_134_" />
	<polygon
   style="fill:#904799"
   points="99,152.1 99,159.5 "
   class="st5"
   id="XMLID_133_" />
	<polygon
   style="fill:#0075c9"
   points="99,10.6 99,3.2 "
   class="st4"
   id="XMLID_132_" />
	<polygon
   style="fill:#904799"
   points="59.2,10.6 59.2,3.2 "
   class="st5"
   id="XMLID_131_" />
	<path
   style="fill:#ff8300"
   inkscape:connector-curvature="0"
   d="m 64.9,122.9 c -1.9,-2.8 -4,-5.3 -6.4,-7.8 L 45.3,102 C 42.9,99.6 40.3,97.5 37.5,95.6 29,89.8 19,86.7 8.4,86.7 H 1 v 14.6 h 7.4 c 10.1,0 19.5,3.9 26.6,11 l 13.1,13.1 c 7.1,7.1 11,16.6 11,26.6 v 7.4 H 73.7 V 152 c 0.1,-10.5 -3,-20.5 -8.8,-29.1 z"
   class="st6"
   id="XMLID_130_" />
	<path
   style="fill:#007565"
   inkscape:connector-curvature="0"
   d="m 70.2,50.5 c -1.3,1.6 -2.7,3.1 -4.2,4.6 L 52.9,68.3 c -1.5,1.5 -3,2.9 -4.6,4.2 -4.4,3.6 -9.3,6.6 -14.4,8.9 -7.9,3.5 -16.5,5.4 -25.4,5.4 v 0 c 10.6,0 20.6,3.1 29.2,8.9 3.7,-1.5 7.3,-3.3 10.7,-5.4 4.2,-2.5 8.2,-5.5 12,-8.9 1,-0.9 2,-1.8 2.9,-2.8 L 76.4,65.5 c 1,-1 1.9,-1.9 2.8,-2.9 -3.4,-3.8 -6.4,-7.8 -9,-12.1 z"
   class="st7"
   id="XMLID_129_" />
	<path
   style="fill:#00a887"
   inkscape:connector-curvature="0"
   d="m 59.2,3.2 v 7.4 c 0,10.1 -3.9,19.5 -11,26.6 L 35,50.4 c -7.1,7.1 -16.6,11 -26.6,11 H 1 V 76 H 8.4 C 19,76 29,72.9 37.6,67.1 c 2.8,-1.9 5.4,-4 7.8,-6.4 L 58.5,47.6 c 2.4,-2.4 4.5,-5 6.4,-7.8 5.8,-8.6 8.9,-18.6 8.9,-29.2 V 3.2 Z"
   class="st8"
   id="XMLID_128_" />
	<path
   style="fill:#022169"
   inkscape:connector-curvature="0"
   d="M 105.3,68.3 92.2,55.1 C 90.7,53.6 89.3,52.1 88,50.5 84.4,46.1 81.4,41.2 79.1,36.1 75.6,28.2 73.7,19.6 73.7,10.7 v 0 c 0,10.6 -3.1,20.6 -8.9,29.2 v 0 c 1.5,3.7 3.3,7.3 5.4,10.7 2.6,4.2 5.5,8.2 8.9,12 0.9,1 1.8,2 2.8,2.9 L 95,78.6 c 1,1 1.9,1.9 2.9,2.8 3.7,-3.4 7.7,-6.3 12,-8.9 -1.5,-1.3 -3.1,-2.7 -4.6,-4.2 z"
   class="st9"
   id="XMLID_127_" />
	<path
   style="fill:#005cb9"
   inkscape:connector-curvature="0"
   d="m 149.8,61.5 c -10.1,0 -19.5,-3.9 -26.6,-11 L 110.1,37.4 C 103,30.3 99.1,20.8 99.1,10.8 V 3.2 H 84.5 v 7.4 c 0,10.6 3.1,20.6 8.9,29.2 1.9,2.8 4,5.3 6.4,7.8 l 13.1,13.1 c 2.4,2.4 5,4.5 7.8,6.4 8.6,5.8 18.6,8.9 29.2,8.9 h 7.4 v -14.5 0 0 z"
   class="st10"
   id="XMLID_126_" />
	<path
   style="fill:#752f8a"
   inkscape:connector-curvature="0"
   d="m 149.8,76 c -10.6,0 -20.6,-3.1 -29.2,-8.9 -3.7,1.5 -7.3,3.3 -10.7,5.4 -4.2,2.5 -8.2,5.5 -12,8.9 -1,0.9 -2,1.8 -2.9,2.8 L 81.9,97.3 c -1,1 -1.9,1.9 -2.8,2.9 3.4,3.7 6.3,7.7 8.9,12 1.3,-1.6 2.7,-3.1 4.2,-4.6 l 13.1,-13.1 c 1.5,-1.5 3,-2.9 4.6,-4.2 4.4,-3.6 9.3,-6.6 14.4,-8.9 8,-3.5 16.6,-5.4 25.5,-5.4 z"
   class="st11"
   id="XMLID_125_" />
	<path
   style="fill:#b6008d"
   inkscape:connector-curvature="0"
   d="m 149.8,86.7 c -10.6,0 -20.6,3.1 -29.2,8.9 -2.8,1.9 -5.4,4 -7.8,6.4 l -13.1,13.1 c -2.4,2.4 -4.5,5 -6.4,7.8 v 0 c -5.8,8.6 -8.9,18.6 -8.9,29.2 v 7.4 H 99 v -7.4 c 0,0 0,0 0,0 0,-10.1 3.9,-19.5 11,-26.6 l 13.1,-13.1 c 7.1,-7.1 16.6,-11 26.6,-11 h 7.4 V 86.7 Z"
   class="st12"
   id="XMLID_124_" />
	<path
   style="fill:#ff5959"
   inkscape:connector-curvature="0"
   d="m 88,112.2 c -2.5,-4.2 -5.5,-8.2 -8.9,-12 -0.9,-1 -1.8,-2 -2.8,-2.9 L 63.2,84.2 c -1,-1 -1.9,-1.9 -2.9,-2.8 -3.7,3.4 -7.7,6.3 -12,8.9 1.6,1.3 3.1,2.7 4.6,4.2 L 66,107.6 c 1.5,1.5 2.9,3 4.2,4.6 3.6,4.4 6.6,9.3 8.9,14.4 3.5,7.9 5.4,16.5 5.4,25.4 0,-10.6 3.1,-20.6 8.9,-29.2 v 0 c -1.5,-3.6 -3.3,-7.2 -5.4,-10.6 z"
   class="st13"
   id="XMLID_123_" />
</g><path
     style="fill:#022169"
     inkscape:connector-curvature="0"
     d="m 446.5,59.700003 c 1.4,0 2.5,-0.7 3,-2 l 2.4,-6.7 c 0.2,-0.6 0,-0.9 -0.6,-0.9 H 435 c -1.4,0 -2.7,0.6 -3.3,2.2 l -2.4,6.5 c -0.2,0.6 0,0.9 0.6,0.9 z m -207,-8.6 h -11.7 c -2.3,0 -3.6,0.8 -4.6,2.8 l -9.6,20.3 -9.5,-20.3 c -1,-2 -2.6,-2.8 -4.7,-2.8 h -11.1 c -1.3,0 -1.6,0.6 -0.9,1.8 l 18.4,36.2 V 109.4 c 0,0.9 0.4,1.4 1.3,1.4 H 220 c 0.8,0 1.3,-0.5 1.3,-1.4 V 89.300003 l 19.1,-36.4 c 0.7,-1.2 0.4,-1.8 -0.9,-1.8 z m 40.7,14.2 h -9.6 c -1.9,0 -3.4,1.3 -3.4,3.4 v 30.5 h -5.4 c -3.7,0.1 -5.5,-0.2 -6.7,-1.7 -1,-1.8 -1.4,-4.4 -1.2,-10.1 v -20.8 c 0,-0.9 -0.4,-1.3 -1.2,-1.3 h -9.4 c -1.9,0 -3.4,1.5 -3.4,3.4 v 22.9 c 0,8.3 0.8,12.799997 3.9,15.799997 3.1,3 7.5,3.8 15.8,3.8 8.6,0 15.4,-0.5 20.5,-1.4 1,-0.2 1.1,-0.4 1.1,-1.4 V 66.600003 c 0.1,-0.9 -0.3,-1.3 -1,-1.3 z m 43.7,0.6 c -3.5,-0.7 -6.8,-1 -12.5,-1 -10.9,0.2 -16,1.4 -18.9,7.1 -1.7,3.8 -2.3,8.3 -2.3,16 v 0.1 c 0,7.8 0.6,12.299997 2.3,15.999997 2.9,5.7 8,6.8 18.9,7.1 5.6,0 9,-0.4 12.5,-1 1.8,-0.3 2.6,-1.6 2.6,-3.7 v -6.1 c 0,-0.899997 -0.5,-1.299997 -1.4,-1.299997 h -13.6 c -3,0 -5,-0.7 -5.9,-2.2 -0.9,-1.4 -1.3,-4.3 -1.4,-8.7 v 0 c 0,-0.1 0,-0.1 0,-0.2 0,-0.1 0,-0.1 0,-0.2 v 0 c 0,-4.4 0.5,-7.3 1.4,-8.7 1,-1.4 3,-2.2 5.9,-2.2 H 325 c 1,0 1.4,-0.4 1.4,-1.3 v -6.1 c 0.1,-1.9 -0.7,-3.2 -2.5,-3.6 z m 182.9,2.8 c -3.1,-3 -7.5,-3.8 -15.7,-3.8 -9.7,0 -16.6,0.5 -20.5,1.4 -0.7,0.2 -1.1,0.2 -1.1,1.2 V 109.5 c 0,0.9 0.4,1.3 1.1,1.3 h 11.8 c 0.8,0 1.2,-0.4 1.2,-1.3 V 76.900003 h 5.4 c 3.9,0 5.3,-0.1 6.6,1.8 1.3,1.8 1.3,4 1.3,10 V 109.5 c 0,0.9 0.4,1.3 1.1,1.3 h 11.6 c 0.8,0 1.2,-0.4 1.2,-1.3 V 84.400003 c 0,-8.3 -0.8,-12.8 -4,-15.7 z m -68,-3.8 c -5.3,0 -10,0.3 -14,1.1 -1.9,0.3 -2.7,1.4 -2.7,3.6 v 6.1 c 0,0.8 0.3,1.2 1,1.2 h 15.7 c 4.1,0 6.1,1.6 6.1,4.7 v 1.7 l -8.8,0.1 c -6.2,0 -10.6,0.9 -13.3,2.7 -2.7,1.8 -4.1,5.4 -4.2,10.8 C 419.1,105.1 420.9,108.5 426.1,110.1 c 1.8,0.5 3.7,0.8 5.4,0.9 1.8,0.2 4.1,0.2 7.1,0.2 6.8,0 12.9,-0.6 18.5,-1.7 1.3,-0.3 1.9,-1.2 1.9,-2.6 V 79.300003 c 0,-8.5 -2.6,-14.3 -20.2,-14.4 z m 6.1,34.4 c -1.8,0.4 -4,0.6 -6.8,0.6 -4.4,0 -5.7,-0.9 -5.7,-4.1 0,-3 1.2,-4.2 5.1,-4.2 h 7.5 v 7.7 z m -91.4,-34.4 c -5.3,0 -10,0.3 -14,1.1 -1.9,0.3 -2.7,1.4 -2.7,3.6 v 6.1 c 0,0.8 0.3,1.2 1,1.2 h 15.7 c 4.1,0 6.1,1.6 6.1,4.7 v 1.7 l -8.8,0.1 c -6.2,0 -10.6,0.9 -13.3,2.7 -2.7,1.8 -4.1,5.4 -4.2,10.8 C 333.8,105.1 335.6,108.5 340.8,110.1 c 1.8,0.5 3.7,0.8 5.4,0.9 1.8,0.2 4.1,0.2 7.1,0.2 6.8,0 12.9,-0.6 18.5,-1.7 1.3,-0.3 1.9,-1.2 1.9,-2.6 V 79.300003 c -0.1,-8.5 -2.6,-14.3 -20.2,-14.4 z m 6.1,34.4 c -1.8,0.4 -4,0.6 -6.8,0.6 -4.4,0 -5.7,-0.9 -5.7,-4.1 0,-3 1.2,-4.2 5.1,-4.2 h 7.5 v 7.7 z m 49.8,-0.6 h -3.2 c -3.6,0 -4.8,-0.8 -4.8,-4.2 v -20 h 7.2 c 0.9,0 1.4,-0.4 1.4,-1.3 v -8.1 c 0,-0.8 -0.5,-1.3 -1.4,-1.3 h -7.2 v -10.7 c 0,-1 -0.7,-1.3 -1.4,-1.3 h -9 c -2.4,0 -4,1.1 -4,4.2 v 8 h -5 c -0.9,0 -1.4,0.4 -1.4,1.3 v 8.1 c 0,0.9 0.5,1.3 1.4,1.3 h 5 V 100 c 0,5.3 1.3,8.5 4.3,9.9 1.6,0.7 3,1.1 4.3,1.2 1.3,0.2 3.3,0.3 5.7,0.3 2.3,0 5,-0.3 8.3,-0.9 0.9,-0.2 1.4,-0.8 1.4,-1.7 v -8.7 c -0.2,-0.999997 -0.7,-1.399997 -1.6,-1.399997 z"
     class="st9"
     id="XMLID_245_" /><g
     transform="translate(0,-2.6999969)"
     id="XMLID_201_">
	<path
   style="fill:#022169"
   inkscape:connector-curvature="0"
   d="m 204.3,21.6 c 0.3,0 0.5,0.2 0.5,0.5 v 11 c 0,4.5 -0.7,7.5 -2,9.1 -1.4,1.6 -3.9,2.4 -7.8,2.4 -1.7,0 -3.3,-0.2 -4.8,-0.5 -0.5,-0.1 -0.7,-0.4 -0.7,-0.8 v -2.5 c 0,-0.3 0.2,-0.4 0.5,-0.4 h 5 c 2.1,0 3.5,-0.5 4.1,-1.5 0.7,-1 1,-3 1,-5.9 V 22 c 0,-0.3 0.2,-0.5 0.5,-0.5 h 3.7 z"
   class="st9"
   id="XMLID_243_" />
	<path
   style="fill:#022169"
   inkscape:connector-curvature="0"
   d="m 222.9,27.6 c 0.3,0 0.4,0.2 0.4,0.5 v 15.5 c 0,0.4 -0.1,0.4 -0.4,0.5 -1.8,0.3 -4.2,0.5 -7.2,0.5 -3,0 -4.6,-0.2 -5.8,-1.3 -1.2,-1.1 -1.5,-2.8 -1.5,-5.9 v -9.3 c 0,-0.3 0.2,-0.5 0.5,-0.5 h 3.6 c 0.3,0 0.4,0.2 0.4,0.5 v 8.2 c 0,1.5 0.1,2.5 0.3,3.2 0.4,1.2 0.9,1.4 3,1.4 h 2.7 V 28.1 c 0,-0.3 0.2,-0.5 0.5,-0.5 z"
   class="st9"
   id="XMLID_241_" />
	<path
   style="fill:#022169"
   inkscape:connector-curvature="0"
   d="m 240.3,28.8 c 1.2,1.1 1.5,2.8 1.5,5.9 V 44 c 0,0.3 -0.2,0.5 -0.5,0.5 h -3.6 c -0.3,0 -0.5,-0.2 -0.5,-0.5 v -8.2 c 0,-2.3 0,-3.2 -0.6,-3.9 -0.5,-0.6 -1.1,-0.7 -2.6,-0.7 h -2.7 V 44 c 0,0.3 -0.2,0.5 -0.5,0.5 h -3.6 c -0.3,0 -0.5,-0.2 -0.5,-0.5 V 28.4 c 0,-0.4 0.2,-0.4 0.5,-0.5 1.5,-0.3 3.9,-0.5 7.2,-0.5 3.2,0 4.7,0.3 5.9,1.4 z"
   class="st9"
   id="XMLID_239_" />
	<path
   style="fill:#022169"
   inkscape:connector-curvature="0"
   d="m 250.1,22.9 c 0.3,-0.1 0.5,0.1 0.5,0.5 v 4.3 h 2.8 c 0.3,0 0.5,0.2 0.5,0.5 v 2.4 c 0,0.3 -0.2,0.5 -0.5,0.5 h -2.8 v 8.2 c 0,1.2 0.4,1.5 1.8,1.5 h 1.2 c 0.3,0 0.5,0.1 0.5,0.4 v 2.6 c 0,0.3 -0.2,0.5 -0.5,0.6 -0.9,0.2 -1.7,0.3 -2.6,0.3 -1.3,0 -1.8,0 -2.8,-0.3 -1.4,-0.4 -2,-1.3 -2.1,-3.6 V 31 h -1.8 c -0.3,0 -0.5,-0.1 -0.5,-0.5 v -2.4 c 0,-0.3 0.2,-0.5 0.5,-0.5 h 1.8 v -3.3 c 0,-0.3 0.2,-0.4 0.4,-0.5 z"
   class="st9"
   id="XMLID_237_" />
	<path
   style="fill:#022169"
   inkscape:connector-curvature="0"
   d="m 269.9,29.2 c 1.2,1.3 1.5,3.3 1.5,6.8 0,3.5 -0.5,5.8 -1.5,6.9 -1,1.1 -3.1,1.7 -6.2,1.7 -3.1,0 -5.2,-0.6 -6.2,-1.7 -1,-1.1 -1.5,-3.4 -1.5,-6.9 0,-3.5 0.5,-5.8 1.5,-6.9 1,-1.1 3.1,-1.7 6.2,-1.7 3.3,0 5,0.4 6.2,1.8 z m -8.8,3 c -0.4,0.6 -0.6,1.9 -0.6,3.8 0,1.9 0.2,3.2 0.6,3.8 0.4,0.6 1.3,0.9 2.6,0.9 1.4,0 2.2,-0.3 2.6,-0.9 0.4,-0.6 0.6,-1.9 0.6,-3.8 0,-1.9 -0.2,-3.2 -0.6,-3.8 -0.4,-0.6 -1.3,-0.9 -2.6,-0.9 -1.4,0 -2.2,0.3 -2.6,0.9 z"
   class="st9"
   id="XMLID_234_" />
	<path
   style="fill:#022169"
   inkscape:connector-curvature="0"
   d="m 285.7,27.8 c 0.3,0.1 0.5,0.2 0.5,0.5 v 2.3 c 0,0.3 -0.2,0.5 -0.5,0.5 h -5.4 c -1.2,0 -1.8,0.4 -1.8,1.1 v 0.3 c 0,0.6 0.5,1.1 1.4,1.4 l 3.9,1.4 c 2.4,0.8 3.2,2.3 3.2,4.5 v 0.5 c 0,3.3 -2.2,4.4 -6.4,4.4 -2.2,0 -4.3,-0.1 -6.2,-0.3 -0.3,0 -0.5,-0.1 -0.5,-0.4 v -2.4 c 0,-0.3 0.2,-0.5 0.5,-0.5 h 6.2 c 1.6,0 2.1,-0.2 2.1,-1 v -0.3 c 0,-0.6 -0.4,-1 -1.7,-1.4 l -3.7,-1.3 c -2,-0.7 -3.1,-2.2 -3.1,-4.6 v -0.6 c 0,-3.1 2.3,-4.3 6.8,-4.3 1.6,-0.2 3.2,0 4.7,0.2 z"
   class="st9"
   id="XMLID_232_" />
	<path
   style="fill:#022169"
   inkscape:connector-curvature="0"
   d="m 300.1,22.9 c 0.3,-0.1 0.5,0.1 0.5,0.5 v 4.3 h 2.8 c 0.3,0 0.5,0.2 0.5,0.5 v 2.4 c 0,0.3 -0.2,0.5 -0.5,0.5 h -2.8 v 8.2 c 0,1.2 0.4,1.5 1.8,1.5 h 1.2 c 0.3,0 0.5,0.1 0.5,0.4 v 2.6 c 0,0.3 -0.2,0.5 -0.5,0.6 -0.9,0.2 -1.7,0.3 -2.6,0.3 -1.3,0 -1.8,0 -2.8,-0.3 -1.4,-0.4 -2,-1.3 -2.1,-3.6 V 31 h -1.8 c -0.3,0 -0.5,-0.1 -0.5,-0.5 v -2.4 c 0,-0.3 0.2,-0.5 0.5,-0.5 h 1.8 v -3.3 c 0,-0.3 0.2,-0.4 0.4,-0.5 z"
   class="st9"
   id="XMLID_230_" />
	<path
   style="fill:#022169"
   inkscape:connector-curvature="0"
   d="m 315.9,27.8 c 0.3,0.1 0.5,0.3 0.5,0.6 v 2.5 c 0,0.3 -0.2,0.5 -0.5,0.5 h -2.8 c -1.7,0 -2.1,0.3 -2.1,1.5 V 44 c 0,0.3 -0.2,0.5 -0.5,0.5 h -3.6 c -0.3,0 -0.5,-0.2 -0.5,-0.5 V 31.7 c 0,-1.4 0.5,-2.5 1.1,-3.1 1.1,-0.9 2.7,-1.1 4.3,-1.1 1.8,-0.1 3.2,0.1 4.1,0.3 z"
   class="st9"
   id="XMLID_228_" />
	<path
   style="fill:#022169"
   inkscape:connector-curvature="0"
   d="m 330,28.7 c 1,0.8 1.5,2.1 1.5,3.9 V 43 c 0,0.5 -0.2,0.8 -0.7,0.9 -1.8,0.4 -4.1,0.6 -6.8,0.6 -2.5,0 -3.8,-0.1 -5.1,-0.8 -1.3,-0.7 -1.8,-2.1 -1.8,-4.4 0,-1.9 0.5,-3.2 1.5,-3.9 1,-0.7 2.6,-1 4.7,-1 h 3.8 v -1.1 c 0,-1.4 -0.9,-2.1 -2.8,-2.1 h -5.5 c -0.3,0 -0.4,-0.1 -0.4,-0.5 v -2.5 c 0,-0.3 0.1,-0.4 0.4,-0.5 1.5,-0.3 3.3,-0.5 5.5,-0.5 2.7,0.2 4.7,0.7 5.7,1.5 z m -2.9,8.7 h -3.5 c -1.6,0 -2.1,0.5 -2.1,1.8 0,1.4 0.6,1.8 2.6,1.8 1.3,0 2.3,-0.1 3,-0.3 z"
   class="st9"
   id="XMLID_225_" />
	<path
   style="fill:#022169"
   inkscape:connector-curvature="0"
   d="m 348.4,28.8 c 1.2,1.1 1.5,2.8 1.5,5.9 V 44 c 0,0.3 -0.2,0.5 -0.5,0.5 h -3.6 c -0.3,0 -0.5,-0.2 -0.5,-0.5 v -8.2 c 0,-2.3 0,-3.2 -0.6,-3.9 -0.5,-0.6 -1.1,-0.7 -2.6,-0.7 h -2.7 V 44 c 0,0.3 -0.2,0.5 -0.5,0.5 h -3.6 c -0.3,0 -0.5,-0.2 -0.5,-0.5 V 28.4 c 0,-0.4 0.2,-0.4 0.5,-0.5 1.5,-0.3 3.9,-0.5 7.2,-0.5 3.2,0 4.8,0.3 5.9,1.4 z"
   class="st9"
   id="XMLID_223_" />
	<path
   style="fill:#022169"
   inkscape:connector-curvature="0"
   d="m 364.6,27.8 c 0.3,0.1 0.5,0.2 0.5,0.5 v 2.3 c 0,0.3 -0.2,0.5 -0.5,0.5 h -5.4 c -1.2,0 -1.8,0.4 -1.8,1.1 v 0.3 c 0,0.6 0.5,1.1 1.4,1.4 l 3.9,1.4 c 2.4,0.8 3.2,2.3 3.2,4.5 v 0.5 c 0,3.3 -2.2,4.4 -6.4,4.4 -2.2,0 -4.3,-0.1 -6.2,-0.3 -0.3,0 -0.5,-0.1 -0.5,-0.4 v -2.4 c 0,-0.3 0.2,-0.5 0.5,-0.5 h 6.2 c 1.6,0 2.1,-0.2 2.1,-1 v -0.3 c 0,-0.6 -0.4,-1 -1.7,-1.4 l -3.7,-1.3 c -2,-0.7 -3.1,-2.2 -3.1,-4.6 v -0.6 c 0,-3.1 2.3,-4.3 6.8,-4.3 1.6,-0.2 3.2,0 4.7,0.2 z"
   class="st9"
   id="XMLID_221_" />
	<path
   style="fill:#022169"
   inkscape:connector-curvature="0"
   d="m 378.5,21.3 c 0.3,0.1 0.5,0.2 0.5,0.6 v 2.5 c 0,0.3 -0.2,0.5 -0.5,0.5 h -2.4 c -1.2,0 -1.7,0.2 -1.7,1.2 v 1.6 h 3.7 c 0.3,0 0.4,0.2 0.4,0.5 l -0.5,2.5 c -0.1,0.3 -0.2,0.4 -0.5,0.4 h -3.1 V 44 c 0,0.3 -0.2,0.5 -0.5,0.5 h -3.6 c -0.3,0 -0.5,-0.2 -0.5,-0.5 V 31.1 h -2 c -0.3,0 -0.5,-0.1 -0.5,-0.5 V 28 c 0,-0.3 0.2,-0.5 0.5,-0.5 h 2 v -2.4 c 0,-1.8 0.6,-3 1.7,-3.6 1.1,-0.6 2.1,-0.7 3.6,-0.7 1.2,0.2 2.3,0.3 3.4,0.5 z"
   class="st9"
   id="XMLID_219_" />
	<path
   style="fill:#022169"
   inkscape:connector-curvature="0"
   d="m 393.1,29.2 c 1.2,1.3 1.5,3.3 1.5,6.8 0,3.5 -0.5,5.8 -1.5,6.9 -1,1.1 -3.1,1.7 -6.2,1.7 -3.1,0 -5.2,-0.6 -6.2,-1.7 -1,-1.1 -1.5,-3.4 -1.5,-6.9 0,-3.5 0.5,-5.8 1.5,-6.9 1,-1.1 3.1,-1.7 6.2,-1.7 3.3,0 5,0.4 6.2,1.8 z m -8.7,3 c -0.4,0.6 -0.6,1.9 -0.6,3.8 0,1.9 0.2,3.2 0.6,3.8 0.4,0.6 1.3,0.9 2.6,0.9 1.3,0 2.2,-0.3 2.6,-0.9 0.4,-0.6 0.6,-1.9 0.6,-3.8 0,-1.9 -0.2,-3.2 -0.6,-3.8 -0.4,-0.6 -1.3,-0.9 -2.6,-0.9 -1.3,0 -2.3,0.3 -2.6,0.9 z"
   class="st9"
   id="XMLID_216_" />
	<path
   style="fill:#022169"
   inkscape:connector-curvature="0"
   d="m 407.2,27.8 c 0.3,0.1 0.5,0.3 0.5,0.6 v 2.5 c 0,0.3 -0.2,0.5 -0.5,0.5 h -2.8 c -1.7,0 -2.1,0.3 -2.1,1.5 V 44 c 0,0.3 -0.2,0.5 -0.5,0.5 h -3.6 c -0.3,0 -0.5,-0.2 -0.5,-0.5 V 31.7 c 0,-1.4 0.5,-2.5 1.1,-3.1 1.1,-0.9 2.7,-1.1 4.3,-1.1 1.8,-0.1 3.1,0.1 4.1,0.3 z"
   class="st9"
   id="XMLID_214_" />
	<path
   style="fill:#022169"
   inkscape:connector-curvature="0"
   d="m 431.7,28.8 c 0.9,0.9 1.4,2.6 1.4,5.1 v 10.2 c 0,0.3 -0.2,0.5 -0.5,0.5 H 429 c -0.3,0 -0.5,-0.2 -0.5,-0.5 v -8.2 c -0.2,-4.4 -0.3,-4.4 -2.9,-4.5 -0.9,0 -1.7,0.1 -2.4,0.2 0.3,0.8 0.4,1.8 0.4,3.2 v 9.3 c 0,0.3 -0.2,0.5 -0.4,0.5 h -3.6 c -0.3,0 -0.4,-0.2 -0.4,-0.5 v -9.2 c 0,-1.7 -0.1,-2.5 -0.6,-3 -0.5,-0.5 -1,-0.5 -2.3,-0.5 h -2 V 44 c 0,0.3 -0.2,0.5 -0.5,0.5 h -3.6 c -0.3,0 -0.5,-0.2 -0.5,-0.5 V 28.4 c 0,-0.2 0.1,-0.4 0.4,-0.5 1.6,-0.3 3.5,-0.5 5.8,-0.5 2.3,0 4.1,0.3 5.4,1 1.7,-0.7 3.5,-1 5.2,-1 2.5,0 4.2,0.5 5.2,1.4 z"
   class="st9"
   id="XMLID_212_" />
	<path
   style="fill:#022169"
   inkscape:connector-curvature="0"
   d="m 449.5,29.1 c 1,1.1 1.5,3.3 1.5,6.7 v 0.9 c 0,0.6 -0.2,0.8 -1,0.8 h -9.5 c 0,1.3 0.2,2.2 0.7,2.6 0.5,0.4 1.4,0.6 2.7,0.6 h 5.3 c 0.3,0 0.5,0.1 0.5,0.4 v 2.5 c 0,0.3 -0.2,0.5 -0.4,0.5 -1.4,0.3 -3.3,0.4 -5.8,0.4 -3,0 -5.1,-0.6 -6.1,-1.7 -1,-1.1 -1.5,-3.4 -1.5,-6.9 0,-3.5 0.5,-5.8 1.5,-6.9 1,-1.1 3,-1.7 6.1,-1.7 3.1,0.1 5.1,0.7 6,1.8 z m -8.9,5.5 h 6 c 0,-2.6 -0.7,-3.3 -2.9,-3.3 -2.4,0 -3.1,0.7 -3.1,3.3 z"
   class="st9"
   id="XMLID_209_" />
	<path
   style="fill:#022169"
   inkscape:connector-curvature="0"
   d="m 475.7,28.8 c 0.9,0.9 1.4,2.6 1.4,5.1 v 10.2 c 0,0.3 -0.2,0.5 -0.5,0.5 H 473 c -0.3,0 -0.5,-0.2 -0.5,-0.5 v -8.2 c -0.2,-4.4 -0.3,-4.4 -2.9,-4.5 -0.9,0 -1.7,0.1 -2.4,0.2 0.3,0.8 0.4,1.8 0.4,3.2 v 9.3 c 0,0.3 -0.2,0.5 -0.4,0.5 h -3.6 c -0.3,0 -0.4,-0.2 -0.4,-0.5 v -9.2 c 0,-1.7 -0.1,-2.5 -0.6,-3 -0.5,-0.5 -1,-0.5 -2.3,-0.5 h -2 V 44 c 0,0.3 -0.2,0.5 -0.5,0.5 h -3.6 c -0.3,0 -0.5,-0.2 -0.5,-0.5 V 28.4 c 0,-0.2 0.1,-0.4 0.4,-0.5 1.6,-0.3 3.5,-0.5 5.8,-0.5 2.3,0 4.1,0.3 5.4,1 1.7,-0.7 3.5,-1 5.2,-1 2.6,0 4.2,0.5 5.2,1.4 z"
   class="st9"
   id="XMLID_207_" />
	<path
   style="fill:#022169"
   inkscape:connector-curvature="0"
   d="m 493.9,29.2 c 1.2,1.3 1.5,3.3 1.5,6.8 0,3.5 -0.5,5.8 -1.5,6.9 -1,1.1 -3.1,1.7 -6.2,1.7 -3.1,0 -5.2,-0.6 -6.2,-1.7 -1,-1.1 -1.5,-3.4 -1.5,-6.9 0,-3.5 0.5,-5.8 1.5,-6.9 1,-1.1 3.1,-1.7 6.2,-1.7 3.3,0 5,0.4 6.2,1.8 z m -8.8,3 c -0.4,0.6 -0.6,1.9 -0.6,3.8 0,1.9 0.2,3.2 0.6,3.8 0.4,0.6 1.3,0.9 2.6,0.9 1.4,0 2.2,-0.3 2.6,-0.9 0.4,-0.6 0.6,-1.9 0.6,-3.8 0,-1.9 -0.2,-3.2 -0.6,-3.8 -0.4,-0.6 -1.3,-0.9 -2.6,-0.9 -1.3,0 -2.2,0.3 -2.6,0.9 z"
   class="st9"
   id="XMLID_204_" />
	<path
   style="fill:#022169"
   inkscape:connector-curvature="0"
   d="m 509.8,27.8 c 0.3,0.1 0.5,0.2 0.5,0.5 v 2.3 c 0,0.3 -0.2,0.5 -0.5,0.5 h -5.4 c -1.2,0 -1.8,0.4 -1.8,1.1 v 0.3 c 0,0.6 0.5,1.1 1.4,1.4 l 3.9,1.4 c 2.4,0.8 3.2,2.3 3.2,4.5 v 0.5 c 0,3.3 -2.2,4.4 -6.4,4.4 -2.2,0 -4.3,-0.1 -6.2,-0.3 -0.3,0 -0.5,-0.1 -0.5,-0.4 v -2.4 c 0,-0.3 0.2,-0.5 0.5,-0.5 h 6.2 c 1.6,0 2.1,-0.2 2.1,-1 v -0.3 c 0,-0.6 -0.4,-1 -1.7,-1.4 l -3.7,-1.3 c -2,-0.7 -3.1,-2.2 -3.1,-4.6 v -0.6 c 0,-3.1 2.3,-4.3 6.8,-4.3 1.6,-0.2 3.2,0 4.7,0.2 z"
   class="st9"
   id="XMLID_202_" />
</g><g
     transform="translate(0,-2.6999969)"
     id="XMLID_140_">
	<path
   style="fill:#005cb9"
   inkscape:connector-curvature="0"
   d="m 203.3,146.5 c -0.7,0.3 -1.4,0.4 -2.1,0.4 -1.1,0 -2.1,-0.2 -3,-0.6 -0.9,-0.4 -1.7,-0.9 -2.3,-1.6 -0.6,-0.7 -1.1,-1.5 -1.4,-2.4 -0.3,-0.9 -0.5,-1.9 -0.5,-3 0,-1.1 0.2,-2.1 0.5,-3.1 0.3,-0.9 0.8,-1.8 1.4,-2.5 0.6,-0.7 1.4,-1.2 2.3,-1.6 0.9,-0.4 1.9,-0.6 3,-0.6 0.8,0 1.5,0.1 2.2,0.3 0.7,0.2 1.3,0.6 1.9,1 0.6,0.4 1,1 1.4,1.6 0.4,0.6 0.6,1.4 0.7,2.2 h -3.1 c -0.2,-0.8 -0.6,-1.4 -1.1,-1.8 -0.5,-0.4 -1.2,-0.6 -2,-0.6 -0.7,0 -1.3,0.1 -1.8,0.4 -0.5,0.3 -0.9,0.7 -1.2,1.1 -0.3,0.5 -0.5,1 -0.7,1.6 -0.1,0.6 -0.2,1.2 -0.2,1.9 0,0.6 0.1,1.2 0.2,1.8 0.1,0.6 0.4,1.1 0.7,1.6 0.3,0.5 0.7,0.8 1.2,1.1 0.5,0.3 1.1,0.4 1.8,0.4 1.1,0 1.9,-0.3 2.5,-0.8 0.6,-0.5 0.9,-1.3 1,-2.4 h -3.2 v -2.4 h 6.2 v 7.9 h -2.1 l -0.3,-1.7 c -0.6,1 -1.3,1.6 -2,1.8 z"
   class="st10"
   id="XMLID_199_" />
	<path
   style="fill:#005cb9"
   inkscape:connector-curvature="0"
   d="m 210.1,136.3 c 0.3,-0.9 0.8,-1.8 1.4,-2.5 0.6,-0.7 1.4,-1.2 2.3,-1.6 0.9,-0.4 1.9,-0.6 3,-0.6 1.1,0 2.2,0.2 3,0.6 0.9,0.4 1.6,0.9 2.3,1.6 0.6,0.7 1.1,1.5 1.4,2.5 0.3,0.9 0.5,2 0.5,3.1 0,1.1 -0.2,2.1 -0.5,3 -0.3,0.9 -0.8,1.7 -1.4,2.4 -0.6,0.7 -1.4,1.2 -2.3,1.6 -0.9,0.4 -1.9,0.6 -3,0.6 -1.1,0 -2.1,-0.2 -3,-0.6 -0.9,-0.4 -1.7,-0.9 -2.3,-1.6 -0.6,-0.7 -1.1,-1.5 -1.4,-2.4 -0.3,-0.9 -0.5,-1.9 -0.5,-3 0,-1.1 0.2,-2.1 0.5,-3.1 z m 2.9,4.9 c 0.1,0.6 0.4,1.1 0.7,1.6 0.3,0.5 0.7,0.8 1.2,1.1 0.5,0.3 1.1,0.4 1.8,0.4 0.7,0 1.3,-0.1 1.8,-0.4 0.5,-0.3 0.9,-0.7 1.2,-1.1 0.3,-0.5 0.5,-1 0.7,-1.6 0.2,-0.6 0.2,-1.2 0.2,-1.8 0,-0.6 -0.1,-1.3 -0.2,-1.9 -0.1,-0.6 -0.4,-1.1 -0.7,-1.6 -0.3,-0.5 -0.7,-0.8 -1.2,-1.1 -0.5,-0.3 -1.1,-0.4 -1.8,-0.4 -0.7,0 -1.3,0.1 -1.8,0.4 -0.5,0.3 -0.9,0.7 -1.2,1.1 -0.3,0.5 -0.5,1 -0.7,1.6 -0.1,0.6 -0.2,1.2 -0.2,1.9 0,0.6 0.1,1.2 0.2,1.8 z"
   class="st10"
   id="XMLID_196_" />
	<path
   style="fill:#005cb9"
   inkscape:connector-curvature="0"
   d="m 233.1,132 c 0.7,0 1.3,0.1 1.9,0.2 0.6,0.1 1.1,0.3 1.5,0.6 0.4,0.3 0.7,0.7 1,1.1 0.2,0.5 0.3,1 0.3,1.7 0,0.7 -0.2,1.4 -0.5,1.8 -0.3,0.5 -0.8,0.9 -1.5,1.2 0.9,0.3 1.6,0.7 2,1.4 0.4,0.7 0.7,1.4 0.7,2.4 0,0.7 -0.1,1.4 -0.4,1.9 -0.3,0.5 -0.7,1 -1.2,1.3 -0.5,0.3 -1,0.6 -1.7,0.8 -0.6,0.2 -1.3,0.2 -1.9,0.2 h -7.1 V 132 Z m -0.4,5.9 c 0.6,0 1,-0.1 1.4,-0.4 0.4,-0.3 0.6,-0.7 0.6,-1.3 0,-0.3 -0.1,-0.6 -0.2,-0.8 -0.1,-0.2 -0.3,-0.4 -0.5,-0.5 -0.2,-0.1 -0.4,-0.2 -0.7,-0.3 -0.3,0 -0.5,-0.1 -0.8,-0.1 h -3 v 3.4 z m 0.2,6.3 c 0.3,0 0.6,0 0.9,-0.1 0.3,-0.1 0.5,-0.2 0.8,-0.3 0.2,-0.1 0.4,-0.3 0.5,-0.6 0.1,-0.2 0.2,-0.6 0.2,-0.9 0,-0.8 -0.2,-1.3 -0.6,-1.6 -0.4,-0.3 -1,-0.5 -1.7,-0.5 h -3.5 v 4 z"
   class="st10"
   id="XMLID_192_" />
	<path
   style="fill:#005cb9"
   inkscape:connector-curvature="0"
   d="m 243.9,132 v 14.7 h -3.2 V 132 Z"
   class="st10"
   id="XMLID_190_" />
	<path
   style="fill:#005cb9"
   inkscape:connector-curvature="0"
   d="m 257.7,132 v 2.7 H 250 v 3.1 h 7.1 v 2.5 H 250 v 3.6 h 7.9 v 2.7 H 246.8 V 132 Z"
   class="st10"
   id="XMLID_188_" />
	<path
   style="fill:#005cb9"
   inkscape:connector-curvature="0"
   d="m 268,132 c 0.7,0 1.2,0.1 1.8,0.3 0.5,0.2 1,0.5 1.4,0.9 0.4,0.4 0.7,0.8 0.9,1.3 0.2,0.5 0.3,1 0.3,1.6 0,0.9 -0.2,1.6 -0.5,2.2 -0.4,0.6 -1,1.1 -1.8,1.4 v 0 c 0.4,0.1 0.7,0.3 1,0.5 0.3,0.2 0.5,0.5 0.6,0.8 0.2,0.3 0.3,0.6 0.4,1 0.1,0.4 0.1,0.7 0.2,1.1 0,0.2 0,0.5 0,0.8 0,0.3 0,0.6 0.1,1 0,0.3 0.1,0.6 0.2,0.9 0.1,0.3 0.2,0.5 0.3,0.7 h -3.2 c -0.2,-0.5 -0.3,-1 -0.3,-1.7 0,-0.6 -0.1,-1.3 -0.2,-1.8 -0.1,-0.8 -0.3,-1.3 -0.7,-1.7 -0.4,-0.4 -0.9,-0.5 -1.7,-0.5 h -3.2 v 5.7 h -3.2 V 132 Z m -1.2,6.6 c 0.7,0 1.3,-0.2 1.7,-0.5 0.4,-0.3 0.6,-0.9 0.6,-1.6 0,-0.7 -0.2,-1.2 -0.6,-1.6 -0.4,-0.3 -0.9,-0.5 -1.7,-0.5 h -3.5 v 4.1 h 3.5 z"
   class="st10"
   id="XMLID_185_" />
	<path
   style="fill:#005cb9"
   inkscape:connector-curvature="0"
   d="m 278.1,132 6.1,9.8 v 0 -9.8 h 3 v 14.7 H 284 l -6.1,-9.8 v 0 9.8 h -3 V 132 Z"
   class="st10"
   id="XMLID_183_" />
	<path
   style="fill:#005cb9"
   inkscape:connector-curvature="0"
   d="m 290,136.3 c 0.3,-0.9 0.8,-1.8 1.4,-2.5 0.6,-0.7 1.4,-1.2 2.3,-1.6 0.9,-0.4 1.9,-0.6 3,-0.6 1.1,0 2.2,0.2 3,0.6 0.9,0.4 1.6,0.9 2.3,1.6 0.6,0.7 1.1,1.5 1.4,2.5 0.3,0.9 0.5,2 0.5,3.1 0,1.1 -0.2,2.1 -0.5,3 -0.3,0.9 -0.8,1.7 -1.4,2.4 -0.6,0.7 -1.4,1.2 -2.3,1.6 -0.9,0.4 -1.9,0.6 -3,0.6 -1.1,0 -2.1,-0.2 -3,-0.6 -0.9,-0.4 -1.7,-0.9 -2.3,-1.6 -0.6,-0.7 -1.1,-1.5 -1.4,-2.4 -0.3,-0.9 -0.5,-1.9 -0.5,-3 0,-1.1 0.1,-2.1 0.5,-3.1 z m 2.9,4.9 c 0.1,0.6 0.4,1.1 0.7,1.6 0.3,0.5 0.7,0.8 1.2,1.1 0.5,0.3 1.1,0.4 1.8,0.4 0.7,0 1.3,-0.1 1.8,-0.4 0.5,-0.3 0.9,-0.7 1.2,-1.1 0.3,-0.5 0.5,-1 0.7,-1.6 0.1,-0.6 0.2,-1.2 0.2,-1.8 0,-0.6 -0.1,-1.3 -0.2,-1.9 -0.1,-0.6 -0.4,-1.1 -0.7,-1.6 -0.3,-0.5 -0.7,-0.8 -1.2,-1.1 -0.5,-0.3 -1.1,-0.4 -1.8,-0.4 -0.7,0 -1.3,0.1 -1.8,0.4 -0.5,0.3 -0.9,0.7 -1.2,1.1 -0.3,0.5 -0.5,1 -0.7,1.6 -0.1,0.6 -0.2,1.2 -0.2,1.9 0,0.6 0.1,1.2 0.2,1.8 z"
   class="st10"
   id="XMLID_180_" />
	<path
   style="fill:#005cb9"
   inkscape:connector-curvature="0"
   d="m 322.8,132 v 2.7 H 315 v 3.1 h 7.1 v 2.5 H 315 v 3.6 h 7.9 v 2.7 H 311.8 V 132 Z"
   class="st10"
   id="XMLID_178_" />
	<path
   style="fill:#005cb9"
   inkscape:connector-curvature="0"
   d="m 327.6,143 c 0.2,0.3 0.4,0.6 0.7,0.8 0.3,0.2 0.6,0.4 1,0.5 0.4,0.1 0.8,0.2 1.2,0.2 0.3,0 0.6,0 0.9,-0.1 0.3,0 0.6,-0.1 0.9,-0.3 0.3,-0.1 0.5,-0.3 0.7,-0.6 0.2,-0.2 0.3,-0.5 0.3,-0.9 0,-0.4 -0.1,-0.7 -0.4,-1 -0.3,-0.2 -0.6,-0.5 -1,-0.6 -0.4,-0.2 -0.9,-0.3 -1.4,-0.4 -0.5,-0.1 -1,-0.3 -1.6,-0.4 -0.5,-0.1 -1.1,-0.3 -1.6,-0.5 -0.5,-0.2 -1,-0.5 -1.4,-0.8 -0.4,-0.3 -0.7,-0.7 -1,-1.2 -0.3,-0.5 -0.4,-1 -0.4,-1.7 0,-0.8 0.2,-1.4 0.5,-2 0.3,-0.6 0.7,-1 1.3,-1.4 0.5,-0.4 1.1,-0.6 1.8,-0.8 0.7,-0.2 1.3,-0.3 2,-0.3 0.8,0 1.5,0.1 2.2,0.3 0.7,0.2 1.3,0.4 1.9,0.8 0.5,0.4 1,0.9 1.3,1.5 0.3,0.6 0.5,1.3 0.5,2.2 h -3.1 c 0,-0.4 -0.1,-0.8 -0.3,-1.1 -0.2,-0.3 -0.4,-0.5 -0.6,-0.7 -0.3,-0.2 -0.6,-0.3 -0.9,-0.3 -0.3,-0.1 -0.7,-0.1 -1.1,-0.1 -0.3,0 -0.5,0 -0.8,0.1 -0.3,0.1 -0.5,0.2 -0.7,0.3 -0.2,0.1 -0.4,0.3 -0.5,0.5 -0.1,0.2 -0.2,0.5 -0.2,0.8 0,0.3 0.1,0.5 0.2,0.7 0.1,0.2 0.3,0.3 0.6,0.5 0.3,0.1 0.8,0.3 1.3,0.5 0.6,0.2 1.3,0.3 2.2,0.6 0.3,0.1 0.7,0.2 1.1,0.3 0.5,0.1 1,0.4 1.4,0.7 0.5,0.3 0.9,0.7 1.2,1.3 0.3,0.5 0.5,1.2 0.5,2 0,0.7 -0.1,1.3 -0.4,1.9 -0.3,0.6 -0.6,1.1 -1.2,1.5 -0.5,0.4 -1.1,0.7 -1.9,1 -0.8,0.2 -1.6,0.3 -2.6,0.3 -0.8,0 -1.6,-0.1 -2.4,-0.3 -0.8,-0.2 -1.4,-0.5 -2,-0.9 -0.6,-0.4 -1,-1 -1.4,-1.6 -0.3,-0.7 -0.5,-1.4 -0.5,-2.3 h 3.1 c 0.3,0.3 0.4,0.7 0.6,1 z"
   class="st10"
   id="XMLID_176_" />
	<path
   style="fill:#005cb9"
   inkscape:connector-curvature="0"
   d="M 337.3,134.7 V 132 h 12 v 2.7 h -4.4 v 12 h -3.2 v -12 z"
   class="st10"
   id="XMLID_174_" />
	<path
   style="fill:#005cb9"
   inkscape:connector-curvature="0"
   d="m 356.4,132 5.5,14.7 h -3.3 l -1.1,-3.3 H 352 l -1.1,3.3 h -3.2 l 5.5,-14.7 z m 0.2,9 -1.8,-5.4 v 0 l -1.9,5.4 z"
   class="st10"
   id="XMLID_171_" />
	<path
   style="fill:#005cb9"
   inkscape:connector-curvature="0"
   d="M 360.1,134.7 V 132 h 12 v 2.7 h -4.4 v 12 h -3.2 v -12 z"
   class="st10"
   id="XMLID_169_" />
	<path
   style="fill:#005cb9"
   inkscape:connector-curvature="0"
   d="m 379.3,132 5.5,14.7 h -3.3 l -1.1,-3.3 h -5.5 l -1.1,3.3 h -3.2 L 376,132 Z m 0.1,9 -1.8,-5.4 v 0 l -1.9,5.4 z"
   class="st10"
   id="XMLID_166_" />
	<path
   style="fill:#005cb9"
   inkscape:connector-curvature="0"
   d="m 389.2,132 v 12 h 7.1 v 2.7 H 386 V 132 Z"
   class="st10"
   id="XMLID_164_" />
	<path
   style="fill:#005cb9"
   inkscape:connector-curvature="0"
   d="m 403.5,135.5 c 0.2,-0.7 0.5,-1.3 1,-1.8 0.4,-0.5 1,-0.9 1.7,-1.2 0.7,-0.3 1.4,-0.4 2.3,-0.4 0.7,0 1.3,0.1 1.9,0.3 0.6,0.2 1.1,0.5 1.6,0.9 0.5,0.4 0.8,0.9 1.1,1.4 0.3,0.6 0.4,1.2 0.4,1.9 0,0.7 -0.1,1.3 -0.3,1.9 -0.2,0.5 -0.5,1 -0.9,1.4 -0.4,0.4 -0.8,0.8 -1.3,1.1 -0.5,0.3 -1,0.7 -1.5,1 -0.5,0.3 -1,0.7 -1.4,1 -0.5,0.4 -0.9,0.8 -1.2,1.3 h 6.8 v 2.5 h -10.6 c 0,-0.8 0.1,-1.6 0.4,-2.2 0.2,-0.6 0.6,-1.2 1,-1.7 0.4,-0.5 0.9,-0.9 1.4,-1.3 0.5,-0.4 1.1,-0.8 1.8,-1.3 0.3,-0.2 0.7,-0.4 1,-0.7 0.4,-0.2 0.7,-0.5 1,-0.7 0.3,-0.3 0.5,-0.6 0.7,-0.9 0.2,-0.3 0.3,-0.7 0.3,-1.2 0,-0.7 -0.2,-1.2 -0.6,-1.6 -0.4,-0.4 -0.9,-0.6 -1.6,-0.6 -0.4,0 -0.8,0.1 -1.1,0.3 -0.3,0.2 -0.5,0.5 -0.7,0.8 -0.2,0.3 -0.3,0.7 -0.4,1.1 -0.1,0.4 -0.1,0.8 -0.1,1.2 h -2.8 c -0.2,-1 -0.1,-1.8 0.1,-2.5 z"
   class="st10"
   id="XMLID_162_" />
	<path
   style="fill:#005cb9"
   inkscape:connector-curvature="0"
   d="m 414.8,135.9 c 0.3,-1 0.7,-1.7 1.1,-2.3 0.5,-0.6 1,-1 1.7,-1.2 0.6,-0.2 1.3,-0.4 2,-0.4 0.7,0 1.4,0.1 2,0.4 0.6,0.2 1.2,0.7 1.7,1.2 0.5,0.6 0.9,1.3 1.2,2.3 0.3,1 0.4,2.1 0.4,3.5 0,1.4 -0.1,2.6 -0.4,3.6 -0.3,1 -0.7,1.7 -1.2,2.3 -0.5,0.6 -1,1 -1.7,1.2 -0.6,0.2 -1.3,0.4 -2,0.4 -0.7,0 -1.4,-0.1 -2,-0.4 -0.6,-0.2 -1.2,-0.7 -1.7,-1.2 -0.5,-0.6 -0.9,-1.3 -1.1,-2.3 -0.3,-1 -0.4,-2.2 -0.4,-3.6 -0.1,-1.4 0.1,-2.6 0.4,-3.5 z m 2.5,5 c 0,0.6 0.1,1.1 0.3,1.7 0.1,0.5 0.4,1 0.7,1.4 0.3,0.4 0.8,0.6 1.4,0.6 0.6,0 1.1,-0.2 1.4,-0.6 0.3,-0.4 0.6,-0.8 0.7,-1.4 0.1,-0.5 0.2,-1.1 0.3,-1.7 0,-0.6 0,-1.1 0,-1.5 0,-0.2 0,-0.5 0,-0.9 0,-0.3 0,-0.7 -0.1,-1.1 0,-0.4 -0.1,-0.7 -0.2,-1.1 -0.1,-0.4 -0.2,-0.7 -0.4,-1 -0.2,-0.3 -0.4,-0.5 -0.7,-0.7 -0.3,-0.2 -0.6,-0.3 -1,-0.3 -0.4,0 -0.7,0.1 -1,0.3 -0.3,0.2 -0.5,0.4 -0.7,0.7 -0.2,0.3 -0.3,0.6 -0.4,1 -0.1,0.4 -0.2,0.7 -0.2,1.1 0,0.4 -0.1,0.7 -0.1,1.1 0,0.3 0,0.6 0,0.9 0,0.4 0,0.9 0,1.5 z"
   class="st10"
   id="XMLID_159_" />
	<path
   style="fill:#005cb9"
   inkscape:connector-curvature="0"
   d="m 430.5,146.7 v -9.3 h -3.6 v -2.2 c 0.5,0 1,0 1.5,-0.1 0.5,-0.1 0.9,-0.2 1.3,-0.5 0.4,-0.2 0.7,-0.5 1,-0.9 0.3,-0.4 0.4,-0.8 0.5,-1.4 h 2.3 v 14.4 z"
   class="st10"
   id="XMLID_157_" />
	<path
   style="fill:#005cb9"
   inkscape:connector-curvature="0"
   d="m 438.1,134.2 c 0.3,-0.5 0.7,-0.9 1.1,-1.2 0.5,-0.3 1,-0.6 1.6,-0.7 0.6,-0.2 1.2,-0.2 1.7,-0.2 0.9,0 1.6,0.1 2.3,0.4 0.6,0.3 1.1,0.6 1.5,1 0.4,0.4 0.6,0.8 0.8,1.3 0.2,0.4 0.2,0.8 0.2,1.2 0,0.7 -0.2,1.3 -0.5,1.9 -0.3,0.5 -0.9,0.9 -1.6,1.2 v 0 c 0.9,0.2 1.5,0.6 2,1.2 0.5,0.6 0.7,1.4 0.7,2.3 0,0.8 -0.2,1.4 -0.5,2 -0.3,0.6 -0.7,1 -1.2,1.4 -0.5,0.4 -1.1,0.6 -1.7,0.8 -0.6,0.2 -1.3,0.3 -2,0.3 -0.7,0 -1.4,-0.1 -2,-0.3 -0.7,-0.2 -1.2,-0.4 -1.7,-0.8 -0.5,-0.4 -0.9,-0.8 -1.2,-1.4 -0.3,-0.6 -0.5,-1.2 -0.5,-2 0,-0.9 0.2,-1.7 0.7,-2.3 0.5,-0.6 1.1,-1 2,-1.2 v 0 c -0.7,-0.2 -1.2,-0.6 -1.6,-1.1 -0.4,-0.5 -0.5,-1.2 -0.5,-1.9 -0.1,-0.8 0.1,-1.4 0.4,-1.9 z m 2.1,9.1 c 0.1,0.3 0.3,0.6 0.5,0.8 0.2,0.2 0.5,0.4 0.8,0.5 0.3,0.1 0.6,0.2 1,0.2 0.4,0 0.7,-0.1 1,-0.2 0.3,-0.1 0.6,-0.3 0.8,-0.5 0.2,-0.2 0.4,-0.5 0.5,-0.8 0.1,-0.3 0.2,-0.6 0.2,-1 0,-0.3 -0.1,-0.7 -0.2,-0.9 -0.1,-0.3 -0.3,-0.5 -0.5,-0.7 -0.2,-0.2 -0.5,-0.4 -0.8,-0.5 -0.3,-0.1 -0.6,-0.2 -1,-0.2 -0.7,0 -1.3,0.2 -1.8,0.6 -0.5,0.4 -0.7,1 -0.7,1.7 0,0.4 0,0.7 0.2,1 z m 0.7,-5.7 c 0.4,0.3 1,0.5 1.5,0.5 0.6,0 1.1,-0.2 1.5,-0.5 0.4,-0.3 0.6,-0.8 0.6,-1.4 0,-0.2 0,-0.4 -0.1,-0.6 -0.1,-0.2 -0.2,-0.4 -0.3,-0.6 -0.2,-0.2 -0.4,-0.4 -0.7,-0.5 -0.3,-0.1 -0.6,-0.2 -1.1,-0.2 -0.3,0 -0.6,0 -0.8,0.1 -0.3,0.1 -0.5,0.2 -0.7,0.4 -0.2,0.2 -0.4,0.4 -0.5,0.6 -0.1,0.2 -0.2,0.5 -0.2,0.9 0.2,0.5 0.4,1 0.8,1.3 z"
   class="st10"
   id="XMLID_153_" />
	<path
   style="fill:#005cb9"
   inkscape:connector-curvature="0"
   d="m 455.5,139.5 c 0.3,-0.3 0.8,-0.5 1.2,-0.5 0.2,0 0.5,0 0.7,0.1 0.2,0.1 0.4,0.2 0.5,0.4 0.2,0.2 0.3,0.3 0.4,0.6 0.1,0.2 0.1,0.4 0.1,0.7 0,0.2 0,0.4 -0.1,0.6 -0.1,0.2 -0.2,0.4 -0.4,0.6 -0.2,0.2 -0.3,0.3 -0.5,0.4 -0.2,0.1 -0.4,0.1 -0.7,0.1 -0.2,0 -0.5,0 -0.7,-0.1 -0.2,-0.1 -0.4,-0.2 -0.6,-0.4 -0.2,-0.2 -0.3,-0.3 -0.4,-0.6 -0.1,-0.2 -0.1,-0.4 -0.1,-0.7 0.1,-0.4 0.3,-0.8 0.6,-1.2 z"
   class="st10"
   id="XMLID_151_" />
	<path
   style="fill:#005cb9"
   inkscape:connector-curvature="0"
   d="m 466.4,135.5 c 0.2,-0.7 0.5,-1.3 1,-1.8 0.4,-0.5 1,-0.9 1.7,-1.2 0.7,-0.3 1.4,-0.4 2.3,-0.4 0.7,0 1.3,0.1 1.9,0.3 0.6,0.2 1.1,0.5 1.6,0.9 0.5,0.4 0.8,0.9 1.1,1.4 0.3,0.6 0.4,1.2 0.4,1.9 0,0.7 -0.1,1.3 -0.3,1.9 -0.2,0.5 -0.5,1 -0.9,1.4 -0.4,0.4 -0.8,0.8 -1.3,1.1 -0.5,0.3 -1,0.7 -1.5,1 -0.5,0.3 -1,0.7 -1.4,1 -0.5,0.4 -0.9,0.8 -1.2,1.3 h 6.8 v 2.5 H 466 c 0,-0.8 0.1,-1.6 0.4,-2.2 0.2,-0.6 0.6,-1.2 1,-1.7 0.4,-0.5 0.9,-0.9 1.4,-1.3 0.5,-0.4 1.1,-0.8 1.8,-1.3 0.3,-0.2 0.7,-0.4 1,-0.7 0.4,-0.2 0.7,-0.5 1,-0.7 0.3,-0.3 0.5,-0.6 0.7,-0.9 0.2,-0.3 0.3,-0.7 0.3,-1.2 0,-0.7 -0.2,-1.2 -0.6,-1.6 -0.4,-0.4 -0.9,-0.6 -1.6,-0.6 -0.4,0 -0.8,0.1 -1.1,0.3 -0.3,0.2 -0.5,0.5 -0.7,0.8 -0.2,0.3 -0.3,0.7 -0.4,1.1 -0.1,0.4 -0.1,0.8 -0.1,1.2 h -2.8 c -0.3,-1 -0.2,-1.8 0.1,-2.5 z"
   class="st10"
   id="XMLID_149_" />
	<path
   style="fill:#005cb9"
   inkscape:connector-curvature="0"
   d="m 477.6,135.9 c 0.3,-1 0.7,-1.7 1.1,-2.3 0.5,-0.6 1,-1 1.7,-1.2 0.6,-0.2 1.3,-0.4 2,-0.4 0.7,0 1.4,0.1 2,0.4 0.6,0.2 1.2,0.7 1.7,1.2 0.5,0.6 0.9,1.3 1.2,2.3 0.3,1 0.4,2.1 0.4,3.5 0,1.4 -0.1,2.6 -0.4,3.6 -0.3,1 -0.7,1.7 -1.2,2.3 -0.5,0.6 -1,1 -1.7,1.2 -0.6,0.2 -1.3,0.4 -2,0.4 -0.7,0 -1.4,-0.1 -2,-0.4 -0.6,-0.2 -1.2,-0.7 -1.7,-1.2 -0.5,-0.6 -0.9,-1.3 -1.1,-2.3 -0.3,-1 -0.4,-2.2 -0.4,-3.6 0,-1.4 0.1,-2.6 0.4,-3.5 z m 2.5,5 c 0,0.6 0.1,1.1 0.3,1.7 0.1,0.5 0.4,1 0.7,1.4 0.3,0.4 0.8,0.6 1.4,0.6 0.6,0 1.1,-0.2 1.4,-0.6 0.3,-0.4 0.6,-0.8 0.7,-1.4 0.1,-0.5 0.2,-1.1 0.3,-1.7 0.1,-0.6 0,-1.1 0,-1.5 0,-0.2 0,-0.5 0,-0.9 0,-0.3 0,-0.7 -0.1,-1.1 0,-0.4 -0.1,-0.7 -0.2,-1.1 -0.1,-0.4 -0.2,-0.7 -0.4,-1 -0.2,-0.3 -0.4,-0.5 -0.7,-0.7 -0.3,-0.2 -0.6,-0.3 -1,-0.3 -0.4,0 -0.7,0.1 -1,0.3 -0.3,0.2 -0.5,0.4 -0.7,0.7 -0.2,0.3 -0.3,0.6 -0.4,1 -0.1,0.4 -0.2,0.7 -0.2,1.1 0,0.4 -0.1,0.7 -0.1,1.1 0,0.3 0,0.6 0,0.9 0,0.4 0,0.9 0,1.5 z"
   class="st10"
   id="XMLID_146_" />
	<path
   style="fill:#005cb9"
   inkscape:connector-curvature="0"
   d="m 489.2,135.5 c 0.2,-0.7 0.5,-1.3 1,-1.8 0.4,-0.5 1,-0.9 1.7,-1.2 0.7,-0.3 1.4,-0.4 2.3,-0.4 0.7,0 1.3,0.1 1.9,0.3 0.6,0.2 1.1,0.5 1.6,0.9 0.5,0.4 0.8,0.9 1.1,1.4 0.3,0.6 0.4,1.2 0.4,1.9 0,0.7 -0.1,1.3 -0.3,1.9 -0.2,0.5 -0.5,1 -0.9,1.4 -0.4,0.4 -0.8,0.8 -1.3,1.1 -0.5,0.3 -1,0.7 -1.5,1 -0.5,0.3 -1,0.7 -1.4,1 -0.5,0.4 -0.9,0.8 -1.2,1.3 h 6.8 v 2.5 h -10.6 c 0,-0.8 0.1,-1.6 0.4,-2.2 0.2,-0.6 0.6,-1.2 1,-1.7 0.4,-0.5 0.9,-0.9 1.4,-1.3 0.6,-0.4 1.1,-0.8 1.8,-1.3 0.3,-0.2 0.7,-0.4 1,-0.7 0.4,-0.2 0.7,-0.5 1,-0.7 0.3,-0.3 0.5,-0.6 0.7,-0.9 0.2,-0.3 0.3,-0.7 0.3,-1.2 0,-0.7 -0.2,-1.2 -0.6,-1.6 -0.4,-0.4 -0.9,-0.6 -1.6,-0.6 -0.4,0 -0.8,0.1 -1.1,0.3 -0.3,0.2 -0.5,0.5 -0.7,0.8 -0.2,0.3 -0.3,0.7 -0.4,1.1 -0.1,0.4 -0.1,0.8 -0.1,1.2 h -2.8 c -0.2,-1 -0.1,-1.8 0.1,-2.5 z"
   class="st10"
   id="XMLID_144_" />
	<path
   style="fill:#005cb9"
   inkscape:connector-curvature="0"
   d="m 499.9,143.3 v -2.7 l 6.2,-8.4 h 2.6 v 8.6 h 1.9 v 2.4 h -1.9 v 3.3 H 506 v -3.3 h -6.1 z m 6,-7.4 -3.7,5 h 3.8 z"
   class="st10"
   id="XMLID_141_" />
</g></g>
</svg>